<svg aria-hidden="true" style="position: absolute; width: 0; height: 0; overflow: hidden;" version="1.1" xmlns="http://www.w3.org/2000/svg" xmlns:xlink="http://www.w3.org/1999/xlink">
<defs>
<symbol id="icon-arrow-back" viewBox="0 0 32 32">
<path d="M28 14.667h-19.448l7.057-7.057-1.885-1.885-10.276 10.276 10.276 10.276 1.885-1.885-7.057-7.057h19.448v-2.667z"></path>
</symbol>
<symbol id="icon-chevron-down" viewBox="0 0 32 32">
<path d="M21.724 11.057l-5.724 5.724-5.724-5.724-1.885 1.885 7.609 7.609 7.609-7.609-1.885-1.885z"></path>
</symbol>
<symbol id="icon-chevron-left" viewBox="0 0 32 32">
<path d="M17.724 8.391l-7.609 7.609 7.609 7.609 1.885-1.885-5.724-5.724 5.724-5.724-1.885-1.885z"></path>
</symbol>
<symbol id="icon-chevron-right" viewBox="0 0 32 32">
<path d="M12.943 22.599l7.609-7.609-7.609-7.609-1.885 1.885 5.724 5.724-5.724 5.724 1.885 1.885z"></path>
</symbol>
<symbol id="icon-chevron-up" viewBox="0 0 32 32">
<path d="M8.391 19.057l1.885 1.885 5.724-5.724 5.724 5.724 1.885-1.885-7.609-7.609-7.609 7.609z"></path>
</symbol>
<symbol id="icon-down-arrow-alt" viewBox="0 0 32 32">
<path d="M24.943 16.943l-1.885-1.885-5.724 5.724v-12.781h-2.667v12.781l-5.724-5.724-1.885 1.885 8.943 8.943 8.943-8.943z"></path>
</symbol>
<symbol id="icon-facebook" viewBox="0 0 32 32">
<path d="M29.333 16.405c0-7.409-5.969-13.415-13.333-13.415s-13.333 6.006-13.333 13.415c0 6.696 4.876 12.245 11.25 13.252v-9.374h-3.385v-3.878h3.385v-2.955c0-3.362 1.991-5.219 5.036-5.219 1.459 0 2.985 0.262 2.985 0.262v3.301h-1.681c-1.656 0-2.173 1.034-2.173 2.095v2.516h3.698l-0.591 3.878h-3.107v9.374c6.374-1.006 11.25-6.556 11.25-13.252z"></path>
</symbol>
<symbol id="icon-instagram" viewBox="0 0 32 32">
<path d="M15.998 6.161c3.206 0 3.585 0.014 4.846 0.071 1.172 0.052 1.804 0.248 2.226 0.412 0.558 0.216 0.961 0.478 1.378 0.895 0.422 0.422 0.679 0.82 0.9 1.378 0.164 0.422 0.361 1.059 0.412 2.226 0.056 1.266 0.071 1.645 0.071 4.847s-0.014 3.585-0.071 4.847c-0.052 1.172-0.248 1.804-0.412 2.227-0.216 0.558-0.478 0.961-0.895 1.377-0.422 0.422-0.82 0.679-1.378 0.9-0.422 0.164-1.060 0.361-2.226 0.412-1.266 0.056-1.645 0.071-4.847 0.071s-3.585-0.014-4.847-0.071c-1.172-0.052-1.804-0.248-2.226-0.412-0.558-0.216-0.961-0.478-1.378-0.895-0.422-0.422-0.679-0.82-0.9-1.378-0.164-0.422-0.361-1.060-0.412-2.226-0.056-1.266-0.071-1.645-0.071-4.847s0.014-3.585 0.071-4.847c0.052-1.172 0.248-1.804 0.412-2.226 0.216-0.558 0.478-0.961 0.895-1.378 0.422-0.422 0.82-0.679 1.378-0.9 0.422-0.164 1.059-0.361 2.226-0.412 1.261-0.056 1.641-0.071 4.847-0.071h0.001zM15.998 4.001c-3.258 0-3.665 0.014-4.945 0.071-1.275 0.056-2.151 0.262-2.91 0.558-0.792 0.309-1.462 0.717-2.127 1.387-0.67 0.666-1.078 1.336-1.387 2.123-0.295 0.764-0.502 1.636-0.558 2.91-0.056 1.285-0.071 1.692-0.071 4.949s0.014 3.665 0.071 4.945c0.056 1.275 0.262 2.151 0.558 2.91 0.31 0.792 0.717 1.462 1.387 2.127 0.665 0.665 1.336 1.078 2.123 1.383 0.764 0.295 1.636 0.502 2.91 0.558 1.279 0.056 1.687 0.071 4.945 0.071s3.666-0.014 4.945-0.071c1.275-0.056 2.151-0.262 2.91-0.558 0.787-0.305 1.458-0.717 2.123-1.383s1.078-1.336 1.383-2.123c0.295-0.764 0.502-1.635 0.558-2.91 0.056-1.279 0.071-1.687 0.071-4.945s-0.014-3.665-0.071-4.945c-0.056-1.275-0.262-2.151-0.558-2.91-0.295-0.797-0.703-1.467-1.373-2.133-0.665-0.665-1.336-1.078-2.123-1.383-0.764-0.295-1.635-0.502-2.91-0.558-1.284-0.061-1.692-0.075-4.949-0.075l-0.001 0.001z"></path>
<path d="M15.998 9.836c-3.402 0-6.163 2.76-6.163 6.163s2.76 6.163 6.163 6.163c3.403 0 6.163-2.76 6.163-6.163s-2.76-6.163-6.163-6.163zM15.998 19.997c-2.208 0-3.998-1.79-3.998-3.998s1.79-3.998 3.998-3.998c2.208 0 3.998 1.79 3.998 3.998s-1.79 3.998-3.998 3.998z"></path>
<path d="M23.843 9.592c0 0.795-0.644 1.439-1.439 1.439s-1.439-0.644-1.439-1.439 0.644-1.439 1.439-1.439c0.795 0 1.439 0.644 1.439 1.439z"></path>
</symbol>
<symbol id="icon-left-arrow-alt" viewBox="0 0 32 32">
<path d="M16.943 23.057l-5.724-5.724h12.781v-2.667h-12.781l5.724-5.724-1.885-1.885-8.943 8.943 8.943 8.943 1.885-1.885z"></path>
</symbol>
<symbol id="icon-brg" viewBox="0 0 32 32">
<path d="M5.333 8h21.333v2.667h-21.333v-2.667zM5.333 14.667h21.333v2.667h-21.333v-2.667zM5.333 21.333h21.333v2.667h-21.333v-2.667z"></path>
</symbol>
<symbol id="icon-minus" viewBox="0 0 32 32">
<path d="M6.667 14.667h18.667v2.667h-18.667v-2.667z"></path>
</symbol>
<symbol id="icon-plus" viewBox="0 0 32 32">
<path d="M25.333 14.667h-8v-8h-2.667v8h-8v2.667h8v8h2.667v-8h8v-2.667z"></path>
</symbol>
<symbol id="icon-right-arrow-alt" viewBox="0 0 32 32">
<path d="M15.057 23.057l1.885 1.885 8.943-8.943-8.943-8.943-1.885 1.885 5.724 5.724h-12.781v2.667h12.781l-5.724 5.724z"></path>
</symbol>
<symbol id="icon-star" viewBox="0 0 32 32">
<path d="M8.688 19.097l-1.987 8.603c-0.062 0.261-0.043 0.533 0.053 0.783s0.265 0.465 0.485 0.617c0.22 0.152 0.481 0.235 0.749 0.236s0.53-0.078 0.752-0.227l7.26-4.84 7.26 4.84c0.227 0.151 0.495 0.228 0.768 0.222s0.537-0.095 0.757-0.256c0.22-0.161 0.386-0.385 0.475-0.642s0.097-0.536 0.023-0.799l-2.439-8.533 6.048-5.443c0.194-0.174 0.332-0.402 0.398-0.654s0.056-0.518-0.027-0.765-0.238-0.464-0.444-0.624c-0.206-0.16-0.454-0.256-0.714-0.277l-7.601-0.605-3.289-7.281c-0.105-0.234-0.275-0.434-0.491-0.573s-0.467-0.214-0.724-0.214c-0.257 0-0.508 0.074-0.724 0.214s-0.386 0.339-0.491 0.573l-3.289 7.281-7.601 0.604c-0.255 0.020-0.5 0.114-0.703 0.269s-0.358 0.366-0.445 0.607c-0.087 0.241-0.103 0.502-0.046 0.752s0.185 0.478 0.369 0.656l5.619 5.476zM12.492 13.329c0.238-0.019 0.467-0.101 0.662-0.239s0.35-0.325 0.448-0.543l2.399-5.308 2.399 5.308c0.098 0.218 0.252 0.405 0.448 0.543s0.424 0.22 0.662 0.239l5.296 0.42-4.361 3.925c-0.379 0.341-0.529 0.867-0.391 1.357l1.671 5.847-4.981-3.321c-0.219-0.147-0.476-0.225-0.739-0.225s-0.521 0.078-0.739 0.225l-5.205 3.471 1.4-6.061c0.051-0.223 0.044-0.455-0.020-0.675s-0.184-0.419-0.348-0.579l-4.051-3.949 5.453-0.435z"></path>
</symbol>
<symbol id="icon-up-arrow-alt" viewBox="0 0 32 32">
<path d="M14.667 11.219v12.781h2.667v-12.781l5.724 5.724 1.885-1.885-8.943-8.943-8.943 8.943 1.885 1.885 5.724-5.724z"></path>
</symbol>
<symbol id="icon-x" viewBox="0 0 32 32">
<path d="M21.589 8.459l-5.657 5.656-5.656-5.656-1.885 1.885 5.656 5.656-5.656 5.656 1.885 1.885 5.656-5.656 5.657 5.656 1.885-1.885-5.656-5.656 5.656-5.656-1.885-1.885z"></path>
</symbol>
<symbol id="icon-youtube" viewBox="0 0 32 32">
<path d="M28.791 9.604c-0.152-0.563-0.449-1.077-0.861-1.49s-0.925-0.711-1.489-0.864c-2.088-0.573-10.441-0.583-10.441-0.583s-8.352-0.009-10.441 0.539c-0.563 0.16-1.075 0.462-1.487 0.878s-0.711 0.929-0.867 1.493c-0.551 2.088-0.556 6.419-0.556 6.419s-0.005 4.352 0.541 6.419c0.307 1.143 1.207 2.045 2.351 2.353 2.109 0.573 10.44 0.583 10.44 0.583s8.353 0.009 10.441-0.537c0.563-0.153 1.077-0.45 1.49-0.862s0.712-0.925 0.866-1.488c0.552-2.087 0.556-6.416 0.556-6.416s0.027-4.353-0.543-6.441zM13.328 20.007l0.007-8 6.943 4.007-6.949 3.993z"></path>
</symbol>
</defs>
</svg>
