<svg aria-hidden="true" style="position: absolute; width: 0; height: 0; overflow: hidden;" version="1.1" xmlns="http://www.w3.org/2000/svg" xmlns:xlink="http://www.w3.org/1999/xlink">
    <defs>
        <symbol id="icon-logo" viewBox="0 0 144 32">
            <path d="M14.456 0.070c8.769-0.818 16.54 5.632 17.349 14.403s-5.649 16.534-14.42 17.334c-8.758 0.799-16.508-5.648-17.317-14.406s5.631-16.514 14.388-17.331zM17.636 30.12c7.829-0.94 13.412-8.051 12.467-15.879s-8.059-13.407-15.887-12.457c-7.821 0.949-13.393 8.055-12.449 15.876 0.944 7.822 8.047 13.398 15.869 12.46z"></path>
            <path d="M22.174 7.645l1.834-0.013c0.036 5.294 0.038 10.589 0.008 15.883l-1.897 0.024-0.003-9.947-0.009-2.724c-1.059 2.011-2.262 3.944-3.408 5.905-0.726 1.243-1.401 2.67-2.3 3.788-0.214 0.078-0.447 0.084-0.67 0.033-0.073-0.017-0.226-0.074-0.281-0.118-0.485-0.387-5.044-8.396-5.772-9.61 0.187 1.44 0.069 3.012 0.069 4.466l-0.006 8.169-1.94 0.007c0.060-5.286-0.035-10.575 0.016-15.862l2.112 0.011c0.939 1.679 1.947 3.323 2.921 4.983 1.035 1.763 2.043 3.548 3.142 5.272 1.119-2.043 2.37-4.023 3.572-6.018 0.852-1.413 1.657-2.902 2.611-4.248z"></path>
            <path d="M119.294 11.417c0.374-0.025 0.759-0.035 1.133-0.028 1.399 0.025 2.827 0.773 3.784 1.764 1.193 1.235 1.747 2.958 1.707 4.657-0.040 1.729-0.689 3.373-1.961 4.559-1.128 1.051-2.574 1.613-4.12 1.555-1.77-0.067-2.944-0.812-4.131-2.080-0.046 0.725-0.032 1.459-0.039 2.186 0.008 1.444 0.006 2.887-0.006 4.332-0.673 0.066-1.352 0.061-2.024-0.019 0.11-2.235 0.013-4.525 0.014-6.766 0-3.334 0.053-6.677-0.022-10.010l2.003-0.008c-0.039 0.744-0.030 1.495-0.041 2.24 1.085-1.354 1.99-2.007 3.703-2.384zM120.161 22.136c1.245-0.233 2.21-0.741 2.94-1.816 0.715-1.070 0.972-2.381 0.712-3.641-0.223-1.123-0.888-2.184-1.866-2.797-0.77-0.483-1.602-0.616-2.491-0.59-1.234 0.233-2.235 0.673-2.974 1.749-0.697 1.013-0.997 2.456-0.762 3.661 0.223 1.157 0.909 2.173 1.9 2.811 0.79 0.497 1.624 0.64 2.541 0.624z"></path>
            <path d="M81.922 6.394c0.326 0.335 0.428 1.221 0.622 1.695-2.102 0.882-5.149 0.701-6.839 2.315-1.011 0.966-1.252 2.301-1.273 3.632 0.904-1.117 1.895-2.022 3.378-2.27 1.498-0.251 3.086 0.039 4.315 0.954 1.32 0.983 2.055 2.407 2.276 4.021 0.253 1.855-0.209 3.603-1.347 5.085-0.824 0.915-1.783 1.59-2.991 1.886-1.529 0.375-3.274 0.181-4.622-0.655-1.537-0.955-2.421-2.529-2.805-4.262-0.573-2.589-0.46-6.459 1.032-8.757 1.316-2.027 3.303-2.429 5.511-2.954 0.917-0.218 1.821-0.486 2.741-0.689zM78.428 22.147c1.301-0.193 2.27-0.505 3.078-1.623 0.793-1.096 1.050-2.48 0.804-3.798-0.199-1.063-0.759-2.036-1.671-2.637-0.559-0.37-1.208-0.581-1.878-0.613-1.266 0.142-2.308 0.404-3.151 1.448-0.791 0.981-1.129 2.305-0.955 3.548 0.159 1.134 0.779 2.224 1.71 2.9 0.63 0.457 1.306 0.657 2.062 0.775z"></path>
            <path d="M53.445 7.2c0.74-0.074 1.51-0.039 2.254-0.044-0.1 5.448 0.019 10.911-0.012 16.361l-1.962-0.020 0.003-9.637c-0.005-1.104-0.028-2.211 0.039-3.313-1.808 3.339-3.439 6.825-5.419 10.062l-1.275-0.007c-1.95-3.198-3.574-6.643-5.377-9.929 0.071 1.507 0.023 3.037 0.024 4.546l0.004 8.298c-0.654-0.017-1.305 0.026-1.96-0.005l0.001-9.927c0.001-2.134-0.040-4.281 0.077-6.412l2.183 0.001c0.62 1.064 1.148 2.204 1.711 3.299 1.308 2.542 2.602 5.112 4.013 7.598 2.073-3.516 3.715-7.302 5.697-10.873z"></path>
            <path d="M63.535 11.421c0.299-0.016 0.599-0.027 0.899-0.034 1.571-0.026 3.136 0.403 4.268 1.541 1.515 1.522 1.665 3.441 1.666 5.469-3.269 0.042-6.543-0.003-9.813 0.012 0.101 0.539 0.202 1.056 0.459 1.549 0.511 0.985 1.398 1.722 2.46 2.045 1.271 0.385 2.55 0.159 3.693-0.471 0.384-0.261 0.734-0.566 1.091-0.861 0.513 0.293 1.033 0.538 1.575 0.772-0.807 1.088-1.847 1.882-3.163 2.242-1.685 0.461-3.739 0.28-5.257-0.613-1.331-0.785-2.286-2.077-2.646-3.579-0.449-1.807-0.198-3.783 0.782-5.372 0.945-1.532 2.271-2.289 3.986-2.698zM60.576 16.869c1.619-0.013 3.239-0.018 4.858-0.014l3.027 0.002c-0.295-1.242-0.591-2.394-1.747-3.121-0.846-0.532-1.871-0.613-2.845-0.532-1.051 0.243-1.937 0.721-2.537 1.648-0.406 0.627-0.586 1.301-0.756 2.017z"></path>
            <path d="M104.206 11.417c0.294-0.015 0.587-0.024 0.881-0.029 1.567-0.017 3.132 0.448 4.25 1.591 1.471 1.505 1.607 3.424 1.6 5.41-3.256 0.049-6.519 0.010-9.776 0.018 0.043 0.594 0.147 1.105 0.425 1.64 0.513 0.989 1.365 1.644 2.427 1.955 1.421 0.418 2.715 0.109 3.971-0.588 0.307-0.211 0.579-0.47 0.858-0.717 0.517 0.278 1.040 0.503 1.584 0.719-0.851 1.119-1.911 1.93-3.286 2.279-1.71 0.434-3.674 0.268-5.2-0.654-1.355-0.818-2.284-2.166-2.64-3.702-0.407-1.754-0.123-3.771 0.857-5.292s2.321-2.256 4.049-2.63zM101.143 16.865c1.55-0.004 3.102-0.026 4.652-0.009l3.285-0.002c-0.341-1.277-0.698-2.522-1.934-3.224-0.765-0.436-1.698-0.51-2.562-0.423-1.025 0.17-1.892 0.555-2.529 1.413-0.505 0.679-0.719 1.437-0.914 2.245z"></path>
            <path d="M138.017 11.589c1.983-0.093 3.995-0.026 5.981-0.019-0.101 3.971-0.011 7.968-0.012 11.942l-2.044-0.022-0.001-4.080c-0.976-0.006-2.261-0.197-3.192 0.025-0.291 0.069-0.343 0.216-0.505 0.441-0.689 1.223-1.456 2.403-2.148 3.627-0.772 0.017-1.545 0.020-2.317 0.006 0.756-1.419 1.783-3.225 2.783-4.454-0.12-0.058-0.237-0.119-0.353-0.182-0.872-0.482-1.54-1.256-1.795-2.228-0.267-1.013-0.121-2.169 0.42-3.068 0.731-1.213 1.875-1.68 3.184-1.988zM140.112 17.698c0.603-0.005 1.219 0.014 1.82-0.030-0.008-1.412-0.004-2.824 0.011-4.237-1.197-0.004-2.412-0.036-3.609 0.029-0.755 0.237-1.344 0.492-1.752 1.219-0.269 0.484-0.343 1.122-0.16 1.647 0.176 0.509 0.585 0.866 1.065 1.083 0.812 0.367 1.756 0.295 2.625 0.287z"></path>
            <path d="M88.549 11.699c2.587-0.093 5.197-0.033 7.787-0.038l-0.012 11.85c-0.645-0.009-1.293-0.037-1.933 0.051l-0.009-10.037-1.098 0.044c-0.98-0.048-1.981 0.016-2.963 0.039-0.027 2.389-0.037 7.34-1.71 9.108-0.834 0.881-1.777 0.972-2.916 0.981-0.009-0.623-0.042-1.238-0.087-1.86 0.297-0.027 0.613-0.048 0.903-0.121 1.801-0.454 1.832-6.405 1.877-7.905 0.018-0.585-0.112-1.636 0.161-2.112z"></path>
            <path d="M130.517 11.611l0.265-0.016c0.032 0.043 0.077 0.079 0.096 0.129 0.089 0.233-0.003 10.584-0.002 11.781l-1.735 0.012-0.128-0.026c-0.278-0.502 0.001-10.366-0.086-11.857 0.53 0.007 1.060-0.011 1.589-0.024z"></path>
            <path d="M128.891 7.143l1.996-0.006c-0.021 0.708-0.005 1.417 0.005 2.126l-2.055 0.015c0.030-0.711 0.048-1.423 0.054-2.135z"></path>
        </symbol>
        <symbol id="icon-arrow-back" viewBox="0 0 32 32">
            <path d="M28 14.667h-19.448l7.057-7.057-1.885-1.885-10.276 10.276 10.276 10.276 1.885-1.885-7.057-7.057h19.448v-2.667z"></path>
        </symbol>
        <symbol id="icon-chevron-down" viewBox="0 0 32 32">
            <path d="M21.724 11.057l-5.724 5.724-5.724-5.724-1.885 1.885 7.609 7.609 7.609-7.609-1.885-1.885z"></path>
        </symbol>
        <symbol id="icon-chevron-left" viewBox="0 0 32 32">
            <path d="M17.724 8.391l-7.609 7.609 7.609 7.609 1.885-1.885-5.724-5.724 5.724-5.724-1.885-1.885z"></path>
        </symbol>
        <symbol id="icon-chevron-right" viewBox="0 0 32 32">
            <path d="M12.943 22.599l7.609-7.609-7.609-7.609-1.885 1.885 5.724 5.724-5.724 5.724 1.885 1.885z"></path>
        </symbol>
        <symbol id="icon-chevron-up" viewBox="0 0 32 32">
            <path d="M8.391 19.057l1.885 1.885 5.724-5.724 5.724 5.724 1.885-1.885-7.609-7.609-7.609 7.609z"></path>
        </symbol>
        <symbol id="icon-down-arrow-alt" viewBox="0 0 32 32">
            <path d="M24.943 16.943l-1.885-1.885-5.724 5.724v-12.781h-2.667v12.781l-5.724-5.724-1.885 1.885 8.943 8.943 8.943-8.943z"></path>
        </symbol>
        <symbol id="icon-facebook" viewBox="0 0 32 32">
            <path d="M29.333 16.405c0-7.409-5.969-13.415-13.333-13.415s-13.333 6.006-13.333 13.415c0 6.696 4.876 12.245 11.25 13.252v-9.374h-3.385v-3.878h3.385v-2.955c0-3.362 1.991-5.219 5.036-5.219 1.459 0 2.985 0.262 2.985 0.262v3.301h-1.681c-1.656 0-2.173 1.034-2.173 2.095v2.516h3.698l-0.591 3.878h-3.107v9.374c6.374-1.006 11.25-6.556 11.25-13.252z"></path>
        </symbol>
        <symbol id="icon-instagram" viewBox="0 0 32 32">
            <path d="M15.998 6.161c3.206 0 3.585 0.014 4.846 0.071 1.172 0.052 1.804 0.248 2.226 0.412 0.558 0.216 0.961 0.478 1.378 0.895 0.422 0.422 0.679 0.82 0.9 1.378 0.164 0.422 0.361 1.059 0.412 2.226 0.056 1.266 0.071 1.645 0.071 4.847s-0.014 3.585-0.071 4.847c-0.052 1.172-0.248 1.804-0.412 2.227-0.216 0.558-0.478 0.961-0.895 1.377-0.422 0.422-0.82 0.679-1.378 0.9-0.422 0.164-1.060 0.361-2.226 0.412-1.266 0.056-1.645 0.071-4.847 0.071s-3.585-0.014-4.847-0.071c-1.172-0.052-1.804-0.248-2.226-0.412-0.558-0.216-0.961-0.478-1.378-0.895-0.422-0.422-0.679-0.82-0.9-1.378-0.164-0.422-0.361-1.060-0.412-2.226-0.056-1.266-0.071-1.645-0.071-4.847s0.014-3.585 0.071-4.847c0.052-1.172 0.248-1.804 0.412-2.226 0.216-0.558 0.478-0.961 0.895-1.378 0.422-0.422 0.82-0.679 1.378-0.9 0.422-0.164 1.059-0.361 2.226-0.412 1.261-0.056 1.641-0.071 4.847-0.071h0.001zM15.998 4.001c-3.258 0-3.665 0.014-4.945 0.071-1.275 0.056-2.151 0.262-2.91 0.558-0.792 0.309-1.462 0.717-2.127 1.387-0.67 0.666-1.078 1.336-1.387 2.123-0.295 0.764-0.502 1.636-0.558 2.91-0.056 1.285-0.071 1.692-0.071 4.949s0.014 3.665 0.071 4.945c0.056 1.275 0.262 2.151 0.558 2.91 0.31 0.792 0.717 1.462 1.387 2.127 0.665 0.665 1.336 1.078 2.123 1.383 0.764 0.295 1.636 0.502 2.91 0.558 1.279 0.056 1.687 0.071 4.945 0.071s3.666-0.014 4.945-0.071c1.275-0.056 2.151-0.262 2.91-0.558 0.787-0.305 1.458-0.717 2.123-1.383s1.078-1.336 1.383-2.123c0.295-0.764 0.502-1.635 0.558-2.91 0.056-1.279 0.071-1.687 0.071-4.945s-0.014-3.665-0.071-4.945c-0.056-1.275-0.262-2.151-0.558-2.91-0.295-0.797-0.703-1.467-1.373-2.133-0.665-0.665-1.336-1.078-2.123-1.383-0.764-0.295-1.635-0.502-2.91-0.558-1.284-0.061-1.692-0.075-4.949-0.075l-0.001 0.001z"></path>
            <path d="M15.998 9.836c-3.402 0-6.163 2.76-6.163 6.163s2.76 6.163 6.163 6.163c3.403 0 6.163-2.76 6.163-6.163s-2.76-6.163-6.163-6.163zM15.998 19.997c-2.208 0-3.998-1.79-3.998-3.998s1.79-3.998 3.998-3.998c2.208 0 3.998 1.79 3.998 3.998s-1.79 3.998-3.998 3.998z"></path>
            <path d="M23.843 9.592c0 0.795-0.644 1.439-1.439 1.439s-1.439-0.644-1.439-1.439 0.644-1.439 1.439-1.439c0.795 0 1.439 0.644 1.439 1.439z"></path>
        </symbol>
        <symbol id="icon-left-arrow-alt" viewBox="0 0 32 32">
            <path d="M16.943 23.057l-5.724-5.724h12.781v-2.667h-12.781l5.724-5.724-1.885-1.885-8.943 8.943 8.943 8.943 1.885-1.885z"></path>
        </symbol>
        <symbol id="icon-brg" viewBox="0 0 32 32">
            <path d="M5.333 8h21.333v2.667h-21.333v-2.667zM5.333 14.667h21.333v2.667h-21.333v-2.667zM5.333 21.333h21.333v2.667h-21.333v-2.667z"></path>
        </symbol>
        <symbol id="icon-minus" viewBox="0 0 32 32">
            <path d="M6.667 14.667h18.667v2.667h-18.667v-2.667z"></path>
        </symbol>
        <symbol id="icon-plus" viewBox="0 0 32 32">
            <path d="M25.333 14.667h-8v-8h-2.667v8h-8v2.667h8v8h2.667v-8h8v-2.667z"></path>
        </symbol>
        <symbol id="icon-right-arrow-alt" viewBox="0 0 32 32">
            <path d="M15.057 23.057l1.885 1.885 8.943-8.943-8.943-8.943-1.885 1.885 5.724 5.724h-12.781v2.667h12.781l-5.724 5.724z"></path>
        </symbol>
        <symbol id="icon-star" viewBox="0 0 32 32">
            <path d="M8.688 19.097l-1.987 8.603c-0.062 0.261-0.043 0.533 0.053 0.783s0.265 0.465 0.485 0.617c0.22 0.152 0.481 0.235 0.749 0.236s0.53-0.078 0.752-0.227l7.26-4.84 7.26 4.84c0.227 0.151 0.495 0.228 0.768 0.222s0.537-0.095 0.757-0.256c0.22-0.161 0.386-0.385 0.475-0.642s0.097-0.536 0.023-0.799l-2.439-8.533 6.048-5.443c0.194-0.174 0.332-0.402 0.398-0.654s0.056-0.518-0.027-0.765-0.238-0.464-0.444-0.624c-0.206-0.16-0.454-0.256-0.714-0.277l-7.601-0.605-3.289-7.281c-0.105-0.234-0.275-0.434-0.491-0.573s-0.467-0.214-0.724-0.214c-0.257 0-0.508 0.074-0.724 0.214s-0.386 0.339-0.491 0.573l-3.289 7.281-7.601 0.604c-0.255 0.020-0.5 0.114-0.703 0.269s-0.358 0.366-0.445 0.607c-0.087 0.241-0.103 0.502-0.046 0.752s0.185 0.478 0.369 0.656l5.619 5.476zM12.492 13.329c0.238-0.019 0.467-0.101 0.662-0.239s0.35-0.325 0.448-0.543l2.399-5.308 2.399 5.308c0.098 0.218 0.252 0.405 0.448 0.543s0.424 0.22 0.662 0.239l5.296 0.42-4.361 3.925c-0.379 0.341-0.529 0.867-0.391 1.357l1.671 5.847-4.981-3.321c-0.219-0.147-0.476-0.225-0.739-0.225s-0.521 0.078-0.739 0.225l-5.205 3.471 1.4-6.061c0.051-0.223 0.044-0.455-0.020-0.675s-0.184-0.419-0.348-0.579l-4.051-3.949 5.453-0.435z"></path>
        </symbol>
        <symbol id="icon-up-arrow-alt" viewBox="0 0 32 32">
            <path d="M14.667 11.219v12.781h2.667v-12.781l5.724 5.724 1.885-1.885-8.943-8.943-8.943 8.943 1.885 1.885 5.724-5.724z"></path>
        </symbol>
        <symbol id="icon-x" viewBox="0 0 32 32">
            <path d="M21.589 8.459l-5.657 5.656-5.656-5.656-1.885 1.885 5.656 5.656-5.656 5.656 1.885 1.885 5.656-5.656 5.657 5.656 1.885-1.885-5.656-5.656 5.656-5.656-1.885-1.885z"></path>
        </symbol>
        <symbol id="icon-youtube" viewBox="0 0 32 32">
            <path d="M28.791 9.604c-0.152-0.563-0.449-1.077-0.861-1.49s-0.925-0.711-1.489-0.864c-2.088-0.573-10.441-0.583-10.441-0.583s-8.352-0.009-10.441 0.539c-0.563 0.16-1.075 0.462-1.487 0.878s-0.711 0.929-0.867 1.493c-0.551 2.088-0.556 6.419-0.556 6.419s-0.005 4.352 0.541 6.419c0.307 1.143 1.207 2.045 2.351 2.353 2.109 0.573 10.44 0.583 10.44 0.583s8.353 0.009 10.441-0.537c0.563-0.153 1.077-0.45 1.49-0.862s0.712-0.925 0.866-1.488c0.552-2.087 0.556-6.416 0.556-6.416s0.027-4.353-0.543-6.441zM13.328 20.007l0.007-8 6.943 4.007-6.949 3.993z"></path>
        </symbol>
    </defs>
</svg>